<svg width="131" height="122" viewBox="0 0 131 122" fill="none" xmlns="http://www.w3.org/2000/svg">
<g filter="url(#filter0_d_0_1)">
<path d="M51.524 9.07685C57.6255 -1.87089 73.3745 -1.87089 79.476 9.07686L124.555 89.9608C130.499 100.626 122.788 113.75 110.579 113.75H20.4212C8.21188 113.75 0.501433 100.626 6.44523 89.9608L51.524 9.07685Z" fill="white"/>
</g>
<path d="M55.7044 20.1736C59.7884 12.1796 71.2116 12.1796 75.2956 20.1736L110.584 89.2455C114.323 96.5646 109.007 105.25 100.788 105.25H30.2117C21.9927 105.25 16.6768 96.5646 20.416 89.2455L55.7044 20.1736Z" fill="url(#paint0_linear_0_1)"/>
<path d="M98.9726 95.6132L90.3526 79.6047L91.3782 79.0524L99.9982 95.061L98.9726 95.6132ZM96.3905 82.5486C95.9742 81.9553 95.405 81.6272 94.6828 81.5644C93.9607 81.5015 93.2119 81.6789 92.4364 82.0964C91.8695 82.4017 91.4228 82.7605 91.0963 83.1729C90.774 83.5831 90.5805 84.0126 90.5157 84.4616C90.4551 84.9083 90.5348 85.3359 90.7548 85.7445C90.9388 86.0863 91.1784 86.3365 91.4734 86.4949C91.7704 86.6469 92.0919 86.7346 92.4379 86.758C92.7817 86.7773 93.1233 86.7627 93.4629 86.7142C93.8003 86.6616 94.1046 86.6026 94.3759 86.5372L95.8652 86.187C96.2458 86.095 96.682 86.0161 97.1736 85.9504C97.6694 85.8824 98.1767 85.8808 98.6956 85.9456C99.2163 86.0039 99.7108 86.1732 100.179 86.4535C100.647 86.7338 101.043 87.1741 101.366 87.7744C101.739 88.4665 101.894 89.1894 101.832 89.9434C101.775 90.6951 101.488 91.4219 100.974 92.1239C100.463 92.8236 99.716 93.4384 98.7321 93.9681C97.815 94.462 96.9411 94.7416 96.1105 94.807C95.2841 94.8702 94.5366 94.7403 93.868 94.4174C93.2035 94.0922 92.6577 93.5929 92.2306 92.9195L93.8314 92.0575C94.1335 92.5186 94.5116 92.8313 94.9657 92.9955C95.4217 93.1533 95.9101 93.1914 96.4309 93.11C96.9536 93.0221 97.4693 92.8412 97.9779 92.5674C98.5698 92.2486 99.0498 91.8665 99.4176 91.4211C99.7832 90.9715 100.01 90.4996 100.099 90.0054C100.186 89.5071 100.103 89.0245 99.8519 88.5575C99.623 88.1323 99.3178 87.8503 98.9366 87.7114C98.5553 87.5726 98.1259 87.5241 97.6484 87.5661C97.1709 87.6081 96.6733 87.6878 96.1557 87.8052L94.3375 88.2035C93.182 88.4546 92.1688 88.4705 91.2978 88.2511C90.4269 88.0318 89.759 87.4906 89.2944 86.6277C88.9083 85.9106 88.7654 85.1809 88.8658 84.4385C88.9681 83.6897 89.2689 82.99 89.7682 82.3393C90.2694 81.6822 90.9286 81.1337 91.7457 80.6937C92.5711 80.2492 93.3845 80.0022 94.1859 79.9524C94.9851 79.8986 95.7092 80.0249 96.3582 80.3315C97.0115 80.6358 97.5225 81.1055 97.8913 81.7404L96.3905 82.5486Z" fill="white"/>
<defs>
<filter id="filter0_d_0_1" x="0.398136" y="0.866043" width="130.204" height="120.884" filterUnits="userSpaceOnUse" color-interpolation-filters="sRGB">
<feFlood flood-opacity="0" result="BackgroundImageFix"/>
<feColorMatrix in="SourceAlpha" type="matrix" values="0 0 0 0 0 0 0 0 0 0 0 0 0 0 0 0 0 0 127 0" result="hardAlpha"/>
<feOffset dy="4"/>
<feGaussianBlur stdDeviation="2"/>
<feComposite in2="hardAlpha" operator="out"/>
<feColorMatrix type="matrix" values="0 0 0 0 0 0 0 0 0 0 0 0 0 0 0 0 0 0 0.25 0"/>
<feBlend mode="normal" in2="BackgroundImageFix" result="effect1_dropShadow_0_1"/>
<feBlend mode="normal" in="SourceGraphic" in2="effect1_dropShadow_0_1" result="shape"/>
</filter>
<linearGradient id="paint0_linear_0_1" x1="65.5" y1="1" x2="65.5" y2="140" gradientUnits="userSpaceOnUse">
<stop stop-color="#2AD784"/>
<stop offset="1" stop-color="#25D0C6"/>
</linearGradient>
</defs>
</svg>
